<?xml version="1.0" encoding="UTF-8"?>
<svg width="1505px" height="1505px" viewBox="0 0 1505 1505" version="1.1" xmlns="http://www.w3.org/2000/svg" xmlns:xlink="http://www.w3.org/1999/xlink">
    <!-- Generator: Sketch 54.1 (76490) - https://sketchapp.com -->
    <title>Artboard@2x</title>
    <desc>Created with Sketch.</desc>
    <g id="Artboard" stroke="none" stroke-width="1" fill="none" fill-rule="evenodd">
        <g id="growth-svgrepo-com" fill-rule="nonzero">
            <circle id="Oval" fill="#3A99D7" cx="752.5" cy="752.5" r="752.5"></circle>
            <path d="M479.064593,677 L572.935407,677 C590.593485,677 605,691.368144 605,708.979191 L605,1108.02081 C605,1125.63186 590.593485,1140 572.935407,1140 L479.064593,1140 C461.406515,1140 447,1125.63186 447,1108.02081 L447,708.976251 C447,691.368144 461.409463,677 479.064593,677 Z" id="Path" fill="#11EC8A"></path>
            <path d="M699.064594,545 L792.935407,545 C810.593485,545 825,559.354938 825,576.949798 L825,1108.0502 C825,1125.64506 810.593485,1140 792.935407,1140 L699.064594,1140 C681.406516,1140 667,1125.64506 667,1108.0502 L667,576.946861 C666.997053,559.354938 681.403568,545 699.064594,545 Z" id="Path" fill="#11EC8A"></path>
            <path d="M1046.52059,459.201765 L1046.52059,1108.0002 C1046.52059,1125.62259 1032.11059,1140 1014.44824,1140 L920.554708,1140 C902.892357,1140 888.482355,1125.62259 888.482355,1108.0002 L888.482355,459.201765 L842,459.201765 L967.502949,289 L1093,459.201765 L1046.52059,459.201765 Z" id="Path" fill="#11EC8A"></path>
        </g>
    </g>
</svg>